# xmcd
#
# Track frame offsets:
#	150
#	15568
#	32443
#	49375
#	63211
#	81213
#	99089
#	115328
#	133373
#	154423
#	167981
#	182660
#	196888
#	216212
#	228101
#	240375
#
# Disc length: 3390 seconds
#
# Revision: 1
# Processed by: cddbd v1.5.2PL0 Copyright (c) Steve Scherf et al.
# Submitted via: audiograbber 1.83.01
#
DISCID=d00d3c10
DTITLE=Various Artist - CDX 653
DYEAR=2017
DGENRE=Country
TTITLE0=Cole Swindell - Stay Downtown
TTITLE1=Sarah Dunn Band - A Cowboy's Face
TTITLE2=Michael Lee - Ain't That Just Like Jesus
TTITLE3=Charles Parker - Bring Back The Sun
TTITLE4=James Meadows - Carolina Moon
TTITLE5=Sabin Sharpe - Empty Bottles
TTITLE6=Don Woods Jr - Everyday Hero
TTITLE7=Todd Allen - Grandma's Tractor
TTITLE8=Jesse Xavier - Grandpa Please Don't Die
TTITLE9=Robert Stowell - I'd Die For You
TTITLE10=Gal Friday - Scrapyard
TTITLE11=Justin Kemp Band - Still Breathin'
TTITLE12=Corey Cox - Strawberry Wine
TTITLE13=Smith and Wesley - Superman For A Day
TTITLE14=Brad Puckett - Waitin' On Thunder
TTITLE15=Dakota Danielle - When It Rains
EXTD=
EXTT0=
EXTT1=
EXTT2=
EXTT3=
EXTT4=
EXTT5=
EXTT6=
EXTT7=
EXTT8=
EXTT9=
EXTT10=
EXTT11=
EXTT12=
EXTT13=
EXTT14=
EXTT15=
PLAYORDER=
